<svg width="18" height="18" viewBox="0 0 18 18" fill="none" xmlns="http://www.w3.org/2000/svg">
<path d="M16.193 14.5126L11.461 6.3164V2.3093H11.7686C11.8909 2.3093 12.0083 2.26068 12.0948 2.17415C12.1814 2.08761 12.23 1.97025 12.23 1.84787C12.23 1.72549 12.1814 1.60813 12.0948 1.52159C12.0083 1.43506 11.8909 1.38644 11.7686 1.38644H6.23146C5.62667 1.39625 5.62366 2.2989 6.23146 2.3093H6.53908V6.31632L1.80692 14.5126C1.26784 15.4464 1.94166 16.6136 3.01982 16.6136H14.9801C16.0583 16.6136 16.7322 15.4464 16.193 14.5126ZM15.3939 15.4518C15.3526 15.525 15.2925 15.5858 15.2197 15.6278C15.1469 15.6698 15.0642 15.6915 14.9802 15.6906H3.01982C2.93595 15.6906 2.85356 15.6685 2.78093 15.6266C2.7083 15.5846 2.64799 15.5243 2.60607 15.4517C2.56415 15.379 2.54208 15.2966 2.5421 15.2128C2.54211 15.1289 2.56421 15.0465 2.60616 14.9739L5.33063 10.255C5.69893 10.3921 6.14015 10.4875 6.74855 10.4875C7.87357 10.4875 8.43609 10.1668 8.99868 9.84599C9.56118 9.5252 10.1237 9.20443 11.2487 9.20443C11.5369 9.20287 11.8246 9.22897 12.1077 9.28239L15.3939 14.974C15.4366 15.0464 15.4592 15.1289 15.4592 15.2129C15.4592 15.297 15.4366 15.3795 15.3939 15.4518Z" fill="#4A6088"/>
<path d="M7.66479 14.3064C7.67846 15.115 8.88152 15.1151 8.89526 14.3064C8.88159 13.4979 7.67854 13.4977 7.66479 14.3064Z" fill="#4A6088"/>
<path d="M5.20386 12.4607C5.21753 13.2693 6.42058 13.2694 6.43433 12.4607C6.42066 11.6521 5.2176 11.652 5.20386 12.4607Z" fill="#4A6088"/>
<path d="M10.9995 11.5378C11.0131 12.3465 12.2162 12.3466 12.2299 11.5379C12.2163 10.7293 11.0132 10.7292 10.9995 11.5378Z" fill="#4A6088"/>
</svg>
