<svg width="18" height="18" viewBox="0 0 18 18" fill="none" xmlns="http://www.w3.org/2000/svg">
<path d="M12.7872 15.5025C14.2235 15.1894 15.3 13.8326 15.3 12.2963C15.3 11.3204 14.8569 10.4573 14.1705 9.86861C14.21 9.61395 14.235 9.35511 14.235 9.09001C14.235 7.3392 13.405 5.78565 12.105 4.81501L13.17 3.74626V2.67751L14.235 1.60876L13.17 0.540009L12.105 1.60876H11.04L6.77996 5.88376L4.64996 6.95251V9.09001L5.71496 10.1588H7.84496L8.90996 8.02126L10.5075 6.41813C11.431 6.97599 12.105 7.92838 12.105 9.09001C10.34 9.09001 8.90996 10.5251 8.90996 12.2963H2.51996V13.365H5.71496C6.03321 13.603 6.4149 13.7345 6.77996 13.8994V15.5025H4.64996L2.51996 17.64H15.3L13.17 15.5025H12.7872ZM11.04 12.2963C11.04 11.7055 11.5163 11.2275 12.105 11.2275C12.6936 11.2275 13.17 11.7055 13.17 12.2963C13.17 12.8859 12.6936 13.365 12.105 13.365C11.5163 13.365 11.04 12.8859 11.04 12.2963Z" fill="#212044"/>
</svg>
